<svg width="227" height="40" viewBox="0 0 227 40" fill="none" xmlns="http://www.w3.org/2000/svg">
<path d="M215.926 31.4804C214.187 31.4804 212.646 31.091 211.302 30.3124C209.958 29.5337 208.902 28.499 208.134 27.2084C207.376 25.907 206.998 24.4777 206.998 22.9204C206.998 21.779 207.216 20.6964 207.654 19.6724C208.091 18.6377 208.71 17.7257 209.51 16.9364C210.31 16.1364 211.254 15.507 212.342 15.0484C213.43 14.5897 214.624 14.3604 215.926 14.3604C217.664 14.3604 219.2 14.7497 220.534 15.5284C221.878 16.307 222.928 17.347 223.686 18.6484C224.454 19.939 224.838 21.363 224.838 22.9204C224.838 24.051 224.619 25.1337 224.182 26.1684C223.744 27.203 223.126 28.1204 222.326 28.9204C221.536 29.7097 220.598 30.3337 219.51 30.7924C218.422 31.251 217.227 31.4804 215.926 31.4804ZM215.926 27.4324C216.747 27.4324 217.483 27.251 218.134 26.8884C218.784 26.515 219.296 25.9924 219.67 25.3204C220.043 24.6377 220.23 23.8377 220.23 22.9204C220.23 21.9924 220.043 21.1924 219.67 20.5204C219.307 19.8484 218.8 19.331 218.15 18.9684C217.499 18.595 216.758 18.4084 215.926 18.4084C215.094 18.4084 214.347 18.595 213.686 18.9684C213.035 19.331 212.523 19.8484 212.15 20.5204C211.787 21.1924 211.606 21.9924 211.606 22.9204C211.606 23.8484 211.792 24.6484 212.166 25.3204C212.539 25.9924 213.051 26.515 213.702 26.8884C214.352 27.251 215.094 27.4324 215.926 27.4324Z" fill="#0534C7"/>
<path d="M195.434 30.9998V14.8398H200.106V16.8398C200.629 15.9438 201.301 15.3037 202.122 14.9198C202.944 14.5358 203.84 14.3438 204.81 14.3438C205.152 14.3438 205.466 14.3651 205.754 14.4077C206.042 14.4397 206.325 14.4824 206.602 14.5357L206.026 19.3517C205.685 19.2237 205.322 19.1277 204.938 19.0637C204.554 18.9891 204.176 18.9517 203.802 18.9517C202.725 18.9517 201.84 19.2664 201.146 19.8958C200.453 20.5251 200.106 21.4211 200.106 22.5837V30.9998H195.434Z" fill="#0534C7"/>
<path d="M184.845 31.4804C183.085 31.4804 181.538 31.123 180.205 30.4084C178.872 29.6937 177.832 28.6964 177.085 27.4164C176.338 26.1364 175.965 24.6377 175.965 22.9204C175.965 21.6724 176.178 20.5257 176.605 19.4804C177.042 18.435 177.65 17.5337 178.429 16.7764C179.218 16.0084 180.141 15.4164 181.197 15.0004C182.264 14.5737 183.432 14.3604 184.701 14.3604C186.098 14.3604 187.336 14.6057 188.413 15.0964C189.501 15.587 190.402 16.275 191.117 17.1604C191.832 18.035 192.328 19.0644 192.605 20.2484C192.893 21.4324 192.92 22.7177 192.685 24.1044H180.301C180.301 24.851 180.493 25.5017 180.877 26.0564C181.272 26.611 181.821 27.0484 182.525 27.3684C183.24 27.6777 184.072 27.8324 185.021 27.8324C185.96 27.8324 186.856 27.7044 187.709 27.4484C188.562 27.1924 189.368 26.803 190.125 26.2804L191.677 29.4804C191.165 29.875 190.525 30.227 189.757 30.5364C188.989 30.835 188.173 31.0644 187.309 31.2244C186.456 31.395 185.634 31.4804 184.845 31.4804ZM180.573 20.8884H188.205C188.173 19.939 187.837 19.187 187.197 18.6324C186.568 18.0777 185.698 17.8004 184.589 17.8004C183.48 17.8004 182.557 18.0777 181.821 18.6324C181.096 19.187 180.68 19.939 180.573 20.8884Z" fill="#0534C7"/>
<path d="M140.292 30.9998V14.8398H144.964V16.8398C145.486 15.9438 146.158 15.3037 146.98 14.9198C147.801 14.5358 148.697 14.3438 149.668 14.3438C150.009 14.3438 150.324 14.3651 150.612 14.4077C150.9 14.4397 151.182 14.4824 151.46 14.5357L150.884 19.3517C150.542 19.2237 150.18 19.1277 149.796 19.0637C149.412 18.9891 149.033 18.9517 148.66 18.9517C147.582 18.9517 146.697 19.2664 146.004 19.8958C145.31 20.5251 144.964 21.4211 144.964 22.5837V30.9998H140.292Z" fill="#0534C7"/>
<path d="M129.703 31.4804C127.943 31.4804 126.396 31.123 125.063 30.4084C123.729 29.6937 122.689 28.6964 121.943 27.4164C121.196 26.1364 120.823 24.6377 120.823 22.9204C120.823 21.6724 121.036 20.5257 121.463 19.4804C121.9 18.435 122.508 17.5337 123.287 16.7764C124.076 16.0084 124.999 15.4164 126.055 15.0004C127.121 14.5737 128.289 14.3604 129.559 14.3604C130.956 14.3604 132.193 14.6057 133.271 15.0964C134.359 15.587 135.26 16.275 135.975 17.1604C136.689 18.035 137.185 19.0644 137.463 20.2484C137.751 21.4324 137.777 22.7177 137.543 24.1044H125.159C125.159 24.851 125.351 25.5017 125.735 26.0564C126.129 26.611 126.679 27.0484 127.383 27.3684C128.097 27.6777 128.929 27.8324 129.879 27.8324C130.817 27.8324 131.713 27.7044 132.567 27.4484C133.42 27.1924 134.225 26.803 134.983 26.2804L136.535 29.4804C136.023 29.875 135.383 30.227 134.615 30.5364C133.847 30.835 133.031 31.0644 132.167 31.2244C131.313 31.395 130.492 31.4804 129.703 31.4804ZM125.431 20.8884H133.063C133.031 19.939 132.695 19.187 132.055 18.6324C131.425 18.0777 130.556 17.8004 129.447 17.8004C128.337 17.8004 127.415 18.0777 126.679 18.6324C125.953 19.187 125.537 19.939 125.431 20.8884Z" fill="#0534C7"/>
<path d="M91.6968 31.0004V14.8404H96.3688V16.9204C96.7741 16.3444 97.2434 15.8697 97.7768 15.4964C98.3208 15.1124 98.8968 14.8297 99.5048 14.6484C100.123 14.4564 100.742 14.3604 101.361 14.3604C102.587 14.3604 103.633 14.6377 104.497 15.1924C105.371 15.7364 105.974 16.4564 106.305 17.3524C106.987 16.2857 107.862 15.523 108.929 15.0644C109.995 14.595 111.11 14.3604 112.273 14.3604C113.819 14.3604 115.041 14.659 115.937 15.2564C116.833 15.843 117.467 16.6057 117.841 17.5444C118.225 18.483 118.417 19.4697 118.417 20.5044V31.0004H113.745V21.8484C113.745 20.8777 113.483 20.0937 112.961 19.4964C112.449 18.899 111.691 18.6004 110.689 18.6004C110.059 18.6004 109.494 18.739 108.993 19.0164C108.491 19.2937 108.097 19.667 107.809 20.1364C107.531 20.595 107.393 21.123 107.393 21.7204V31.0004H102.721V21.8484C102.721 20.8777 102.459 20.0937 101.937 19.4964C101.414 18.899 100.657 18.6004 99.6648 18.6004C99.0248 18.6004 98.4541 18.739 97.9528 19.0164C97.4621 19.2937 97.0728 19.667 96.7848 20.1364C96.5074 20.595 96.3688 21.123 96.3688 21.7204V31.0004H91.6968Z" fill="#0534C7"/>
<path d="M80.218 31.4804C78.4794 31.4804 76.938 31.091 75.594 30.3124C74.25 29.5337 73.194 28.499 72.426 27.2084C71.6687 25.907 71.29 24.4777 71.29 22.9204C71.29 21.779 71.5087 20.6964 71.946 19.6724C72.3834 18.6377 73.002 17.7257 73.802 16.9364C74.602 16.1364 75.546 15.507 76.634 15.0484C77.722 14.5897 78.9167 14.3604 80.218 14.3604C81.9567 14.3604 83.4927 14.7497 84.826 15.5284C86.17 16.307 87.2207 17.347 87.978 18.6484C88.746 19.939 89.13 21.363 89.13 22.9204C89.13 24.051 88.9114 25.1337 88.474 26.1684C88.0367 27.203 87.418 28.1204 86.618 28.9204C85.8287 29.7097 84.89 30.3337 83.802 30.7924C82.714 31.251 81.5194 31.4804 80.218 31.4804ZM80.218 27.4324C81.0394 27.4324 81.7754 27.251 82.426 26.8884C83.0767 26.515 83.5887 25.9924 83.962 25.3204C84.3354 24.6377 84.522 23.8377 84.522 22.9204C84.522 21.9924 84.3354 21.1924 83.962 20.5204C83.5994 19.8484 83.0927 19.331 82.442 18.9684C81.7914 18.595 81.05 18.4084 80.218 18.4084C79.386 18.4084 78.6394 18.595 77.978 18.9684C77.3274 19.331 76.8154 19.8484 76.442 20.5204C76.0794 21.1924 75.898 21.9924 75.898 22.9204C75.898 23.8484 76.0847 24.6484 76.458 25.3204C76.8314 25.9924 77.3434 26.515 77.994 26.8884C78.6447 27.251 79.386 27.4324 80.218 27.4324Z" fill="#0534C7"/>
<path d="M66.1724 31.4806C64.4444 31.4806 63.079 30.9952 62.0764 30.0246C61.0844 29.0432 60.5883 27.5659 60.5883 25.5926V10.1846H65.2603V14.8406H69.2763V18.5846H65.2603V24.7446C65.2603 25.6939 65.4577 26.3606 65.8524 26.7446C66.247 27.1286 66.775 27.3206 67.4364 27.3206C67.7777 27.3206 68.1083 27.2832 68.4283 27.2086C68.759 27.1232 69.063 27.0059 69.3404 26.8566L69.9963 30.5366C69.5163 30.8032 68.9404 31.0272 68.2684 31.2086C67.607 31.3899 66.9084 31.4806 66.1724 31.4806ZM57.3083 18.5846V14.8406H61.0523V18.5846H57.3083Z" fill="#0534C7"/>
<path d="M49.2539 31.4642C47.8139 31.4642 46.4859 31.2775 45.2699 30.9042C44.0539 30.5202 43.0139 29.9975 42.1499 29.3362L43.6699 26.0722C44.5126 26.6482 45.4246 27.1015 46.4059 27.4322C47.3872 27.7522 48.3312 27.9122 49.2379 27.9122C50.1339 27.9122 50.8219 27.7789 51.3019 27.5122C51.7926 27.2349 52.0379 26.8402 52.0379 26.3282C52.0379 25.8695 51.8192 25.5335 51.3819 25.3202C50.9552 25.0962 50.1232 24.8562 48.8859 24.6002C46.7526 24.2162 45.1952 23.6135 44.2139 22.7922C43.2326 21.9602 42.7419 20.8189 42.7419 19.3682C42.7419 18.3442 43.0246 17.4429 43.5899 16.6642C44.1659 15.8855 44.9552 15.2829 45.9579 14.8562C46.9606 14.4189 48.1126 14.2002 49.4139 14.2002C50.6939 14.2002 51.8992 14.3762 53.0299 14.7282C54.1712 15.0695 55.1472 15.5495 55.9579 16.1682L54.4859 19.4482C54.0592 19.1069 53.5686 18.8082 53.0139 18.5522C52.4699 18.2962 51.8939 18.0989 51.2859 17.9602C50.6886 17.8109 50.1019 17.7362 49.5259 17.7362C48.7472 17.7362 48.1179 17.8695 47.6379 18.1362C47.1579 18.3922 46.9179 18.7549 46.9179 19.2242C46.9179 19.6935 47.1366 20.0402 47.5739 20.2642C48.0112 20.4882 48.8272 20.7335 50.0219 21.0002C52.2512 21.4695 53.8352 22.0935 54.7739 22.8722C55.7232 23.6402 56.1979 24.7229 56.1979 26.1202C56.1979 27.1975 55.9046 28.1362 55.3179 28.9362C54.7419 29.7362 53.9312 30.3602 52.8859 30.8082C51.8512 31.2455 50.6406 31.4642 49.2539 31.4642Z" fill="#0534C7"/>
<path d="M30.2794 31.4798C28.8181 31.4798 27.6074 31.1918 26.6474 30.6158C25.6981 30.0398 24.9888 29.2505 24.5194 28.2478C24.0501 27.2452 23.8154 26.1092 23.8154 24.8398V14.8398H28.4874V24.0878C28.4874 25.0478 28.7488 25.8105 29.2714 26.3758C29.8048 26.9412 30.5674 27.2238 31.5594 27.2238C32.1994 27.2238 32.7648 27.0852 33.2554 26.8078C33.7461 26.5198 34.1248 26.1198 34.3914 25.6078C34.6688 25.0958 34.8074 24.5038 34.8074 23.8318V14.8398H39.4794V30.9998H35.4154V29.2238C34.8608 29.8638 34.1728 30.4025 33.3514 30.8398C32.5408 31.2665 31.5168 31.4798 30.2794 31.4798Z" fill="#0534C7"/>
<path d="M13.0398 31.4801C10.7251 31.4801 8.68775 31.0055 6.92775 30.0561C5.16775 29.0961 3.79708 27.7468 2.81575 26.0081C1.83442 24.2588 1.34375 22.2055 1.34375 19.8481C1.34375 18.1308 1.63175 16.5575 2.20775 15.1281C2.78375 13.6988 3.59975 12.4615 4.65575 11.4161C5.71175 10.3601 6.95442 9.54945 8.38375 8.98412C9.82375 8.40812 11.3971 8.12012 13.1038 8.12012C14.9171 8.12012 16.4531 8.34945 17.7118 8.80812C18.9704 9.26678 20.1011 9.91212 21.1038 10.7441L18.7038 14.6321C18.0531 13.9921 17.2798 13.5121 16.3838 13.1921C15.4984 12.8721 14.5118 12.7121 13.4238 12.7121C12.3144 12.7121 11.3171 12.8775 10.4318 13.2081C9.55708 13.5388 8.81042 14.0135 8.19175 14.6321C7.58375 15.2401 7.11442 15.9815 6.78375 16.8561C6.46375 17.7201 6.30375 18.6961 6.30375 19.7841C6.30375 21.2775 6.59175 22.5521 7.16775 23.6081C7.75442 24.6535 8.58642 25.4588 9.66375 26.0241C10.7518 26.5895 12.0478 26.8721 13.5518 26.8721C14.5971 26.8721 15.6211 26.7121 16.6238 26.3921C17.6371 26.0721 18.5918 25.5601 19.4878 24.8561L21.6638 28.8401C20.6078 29.6508 19.3704 30.2961 17.9518 30.7761C16.5331 31.2455 14.8958 31.4801 13.0398 31.4801Z" fill="#0534C7"/>
<path d="M153.601 20.2676L158.401 22.6676V32.5342L153.601 30.1342L153.601 20.2676Z" fill="#0534C7"/>
<path d="M168.004 22.6676L172.804 20.2676V30.1342L168.004 32.5342V22.6676Z" fill="#0534C7"/>
<path fill-rule="evenodd" clip-rule="evenodd" d="M153.601 9.33398H158.401V16.0001L168.004 16V9.33398H172.804V16H172.805V20.2665C172.805 20.2665 172.805 20.2667 163.344 20.2667H153.606V16.2673H153.601L153.601 9.33398Z" fill="#0534C7"/>
</svg>
